<svg width="245" height="245" viewBox="0 0 245 245" fill="none" xmlns="http://www.w3.org/2000/svg">
<g clip-path="url(#clip0_220_2)">
<rect width="245" height="245" rx="33" fill="black"/>
<path d="M220.775 177.275C222.275 179.075 223.025 180.875 223.025 182.675C223.025 183.875 222.575 184.925 221.675 185.825C220.925 186.725 219.725 187.4 218.075 187.85C214.925 188.75 210.95 189.05 206.15 188.75C183.5 188 166.4 187.55 154.85 187.4C152 187.4 149.225 186.95 146.525 186.05C140.825 184.25 137.975 181.175 137.975 176.825C137.975 174.725 138.5 172.55 139.55 170.3C142.25 164.45 146.525 156.875 152.375 147.575C153.125 145.925 154.4 143.525 156.2 140.375L166.325 122.825C169.175 118.025 170.75 111.125 171.05 102.125C171.05 95.525 169.325 89.75 165.875 84.8C162.575 79.7 156.575 75.65 147.875 72.65C139.325 69.5 132.05 69.05 126.05 71.3C100.55 80.9 85.475 90.425 80.825 99.875C76.175 109.175 73.775 115.925 73.625 120.125C73.475 124.325 74.675 130.1 77.225 137.45C79.775 144.8 83.225 151.475 87.575 157.475C90.125 160.925 92.375 163.7 94.325 165.8C96.425 167.9 99.05 168.95 102.2 168.95C104.15 168.95 105.875 168.8 107.375 168.5L108.5 168.275C109.25 168.275 110.525 168.5 112.325 168.95C114.875 170 117.05 171.125 118.85 172.325C120.65 173.525 121.625 175.4 121.775 177.95C121.925 179.75 121.175 181.475 119.525 183.125C118.025 184.775 115.85 186.05 113 186.95C111.05 187.55 108.725 187.925 106.025 188.075L43.25 195.05C42.5 195.2 41.3 195.275 39.65 195.275C33.35 195.275 28.4 193.175 24.8 188.975C23.75 187.625 23.225 186.275 23.225 184.925C23.225 182.975 24.05 181.325 25.7 179.975C27.8 178.625 29.975 177.8 32.225 177.5C34.475 177.05 37.175 176.75 40.325 176.6C51.725 176 62.375 174.875 72.275 173.225L76.775 171.65L65.975 162.875C54.275 146.525 49.1 132.5 50.45 120.8C50.15 115.4 51.425 109.775 54.275 103.925C57.275 98.075 62.15 91.475 68.9 84.125C82.55 69.275 95.6 60.425 108.05 57.575L132.8 53.75C146.45 51.65 159.95 56.3 173.3 67.7C176.45 70.1 178.7 71.9 180.05 73.1C189.35 81.95 193.775 91.4 193.325 101.45C193.025 107.9 191 115.025 187.25 122.825C185.9 125.675 181.925 132.575 175.325 143.525C171.725 149.525 169.1 153.95 167.45 156.8C166.7 157.85 165.65 159.875 164.3 162.875L161.825 168.275L171.05 169.175C179.15 169.925 185.825 170.675 191.075 171.425C196.475 172.025 201.725 172.325 206.825 172.325C209.825 172.325 212.45 172.7 214.7 173.45C217.1 174.05 219.125 175.325 220.775 177.275Z" fill="white"/>
</g>
<defs>
<clipPath id="clip0_220_2">
<rect width="245" height="245" rx="33" fill="white"/>
</clipPath>
</defs>
</svg>
